<?xml version="1.0" standalone="no"?>
<!DOCTYPE svg PUBLIC "-//W3C//DTD SVG 20010904//EN"
 "http://www.w3.org/TR/2001/REC-SVG-20010904/DTD/svg10.dtd">
<svg version="1.0" xmlns="http://www.w3.org/2000/svg"
 width="20.000000pt" height="20.000000pt" viewBox="0 0 512.000000 512.000000"
 preserveAspectRatio="xMidYMid meet">
<metadata>
Created by potrace 1.16, written by Peter Selinger 2001-2019
</metadata>
<g transform="translate(0.000000,512.000000) scale(0.100000,-0.100000)"
fill="#9b725e" stroke="none">
<path d="M64 4890 c-57 -23 -82 -108 -50 -168 8 -15 570 -581 1248 -1259 1315
-1313 1256 -1258 1330 -1234 24 8 393 371 1281 1259 l1247 1247 0 50 c-1 75
-42 115 -120 115 l-45 0 -1197 -1197 -1198 -1198 -1188 1187 c-672 672 -1199
1192 -1215 1198 -33 12 -64 12 -93 0z"/>
<path d="M83 2893 c-13 -2 -36 -18 -53 -34 -26 -26 -30 -38 -30 -82 l0 -52
1253 -1252 1252 -1253 45 0 c25 0 57 7 70 16 36 24 2436 2421 2471 2468 58 78
30 160 -64 190 -58 19 -35 40 -1277 -1200 l-1195 -1194 -1190 1190 c-655 655
-1199 1193 -1210 1196 -35 10 -49 11 -72 7z"/>
</g>
</svg>
