<?xml version="1.0" standalone="no"?>
<!DOCTYPE svg PUBLIC "-//W3C//DTD SVG 20010904//EN"
 "http://www.w3.org/TR/2001/REC-SVG-20010904/DTD/svg10.dtd">
<svg version="1.0" xmlns="http://www.w3.org/2000/svg"
 width="15.000000pt" height="15.000000pt" viewBox="0 0 512.000000 512.000000"
 preserveAspectRatio="xMidYMid meet">

<g transform="translate(0.000000,512.000000) scale(0.100000,-0.100000)"
fill="#9b725e" stroke="none">
<path d="M2164 4659 c-1060 -46 -1695 -322 -1977 -858 -110 -208 -177 -485
-177 -727 l0 -84 519 0 519 0 6 38 c3 20 8 60 12 87 17 139 65 295 119 389
123 218 288 320 605 373 208 35 1345 26 1577 -12 101 -16 236 -56 298 -88 101
-51 191 -137 254 -242 64 -105 121 -302 136 -467 l7 -78 528 0 528 0 -4 83
c-16 288 -64 496 -160 691 -251 505 -777 782 -1654 871 -323 32 -748 41 -1136
24z"/>
<path d="M1530 3333 c-56 -11 -60 -23 -60 -187 l0 -151 -61 -69 c-269 -306
-867 -1117 -1008 -1367 l-32 -57 3 -475 c3 -462 4 -476 24 -503 11 -15 33 -37
48 -48 l27 -21 2027 -3 2027 -2 44 22 c83 43 81 27 81 569 l0 476 -68 109
c-185 297 -677 961 -939 1265 l-83 97 0 140 c0 77 -4 152 -10 166 -14 39 -68
48 -265 44 -143 -2 -175 -6 -198 -21 l-27 -17 0 -130 0 -130 -550 0 -550 0 0
128 c0 175 12 167 -224 169 -99 0 -192 -1 -206 -4z m439 -688 c54 -28 81 -71
81 -130 0 -43 -5 -60 -26 -85 -53 -62 -118 -76 -184 -39 -48 27 -72 69 -72
126 0 101 114 174 201 128z m601 -3 c102 -51 106 -192 8 -252 -69 -42 -157
-15 -195 60 -13 24 -23 54 -23 65 0 11 10 41 23 65 37 73 114 99 187 62z m619
-9 c40 -30 63 -81 58 -132 -9 -81 -75 -136 -156 -128 -143 15 -178 203 -50
270 42 22 110 18 148 -10z m-1213 -489 c52 -25 77 -74 72 -140 -4 -43 -11 -61
-33 -84 -121 -127 -316 27 -224 176 36 59 117 80 185 48z m602 -4 c156 -96 33
-330 -132 -251 -80 39 -107 135 -58 209 39 60 128 80 190 42z m603 -3 c96 -64
86 -203 -17 -252 -99 -47 -216 39 -201 147 14 107 131 163 218 105z m-1194
-497 c84 -51 85 -182 2 -240 -38 -28 -117 -30 -154 -6 -39 26 -65 75 -65 124
0 85 56 142 140 142 27 0 58 -8 77 -20z m598 0 c88 -55 84 -199 -8 -246 -92
-48 -201 9 -213 112 -14 113 122 195 221 134z m611 -11 c55 -50 67 -118 33
-179 -72 -127 -269 -77 -269 70 0 37 19 77 52 106 33 30 46 34 106 30 38 -2
59 -9 78 -27z"/>
<path d="M3 2808 c9 -84 21 -125 56 -180 36 -57 106 -93 206 -108 93 -13 443
-13 525 1 170 27 245 107 257 275 l6 74 -528 0 -528 0 6 -62z"/>
<path d="M4064 2855 c-9 -23 15 -143 36 -185 20 -39 75 -87 121 -107 63 -27
179 -35 420 -30 274 5 318 14 386 72 49 42 80 110 89 198 l7 67 -527 0 c-458
0 -527 -2 -532 -15z"/>
</g>
</svg>
